<?xml version="1.0" encoding="utf-8"?>
<!-- Generator: Adobe Illustrator 19.1.0, SVG Export Plug-In . SVG Version: 6.00 Build 0)  -->
<svg width="48px" height="48px" version="1.1" id="Layer_1" xmlns="http://www.w3.org/2000/svg" xmlns:xlink="http://www.w3.org/1999/xlink" x="0px" y="0px"
	 viewBox="0 0 64 64" enable-background="new 0 0 64 64" xml:space="preserve">
<g id="Man">
	<path d="M46.4794998,16.5175991C45.4990005,15.5390997,44.1953049,15,42.8086014,15H21.2998009
		C18.3779011,15,16,17.3740005,16,20.2929993v19.2861023c0,1.7069969,1.3896999,3.0956993,3.1172009,3.0956993
		c1.7471046,0,3.1689987-1.419899,3.1689987-3.1660004V22.4647999l0.1171055-0.1161995L23.5,22.4022999v38.5263977
		C23.5,62.0713005,24.4297009,63,25.5723057,63h3.2059994c0.5556946,0,1.0771942-0.2158012,1.4697952-0.6083984
		c0.3876991-0.3866997,0.6093006-0.922802,0.6093006-1.4687004V40.5351982h2.2852001v20.3955002
		c0,0.555603,0.2168007,1.0761032,0.6054993,1.4609032C34.1386986,62.7841988,34.6591988,63,35.2139015,63h3.2138977
		c0.5527,0,1.0722008-0.2148018,1.4658012-0.6063995C40.2841988,62.0028992,40.5,61.482399,40.5,60.9286995l0.0468979-38.580101
		h1.0771027c0.0489006,0,0.089901,0.0410004,0.089901,0.0888996v17.1259995c0,1.7158012,1.3974037,3.1113014,3.1610985,3.1113014
		c1.7226982,0,3.125-1.4004021,3.125-3.1221008V20.1846008C48,18.7987995,47.4599991,17.4960995,46.4794998,16.5175991z M46,39.5527
		c0,0.6192017-0.5049019,1.1221008-1.1719017,1.1221008c-0.6141968,0-1.1141968-0.4990005-1.1141968-1.1113014V22.4375
		c0-1.1513996-0.9375-2.0888996-2.089901-2.0888996h-1.0771027c-0.5390968,0-1.0663986,0.2187996-1.4452972,0.5977001
		C38.7187996,21.3262005,38.5,21.8544998,38.5,22.3936005v38.535099L38.4277992,61l-3.2851982-0.0693016V39.5351982
		c0-0.5527992-0.4472961-1-1-1h-4.2852001c-0.5527,0-1,0.4472008-1,1v21.3877029L28.7783051,61h-3.2059994
		C25.5321999,61,25.5,60.9678001,25.5,60.9286995V22.4022999c0-0.5410004-0.2186947-1.0702991-0.6035004-1.4540997
		c-0.3886986-0.3866997-0.9042988-0.5995998-1.4520988-0.5995998h-1.0410957c-0.5634041,0-1.0937042,0.2187996-1.5,0.6210995
		c-0.3974056,0.3994007-0.6171055,0.9307003-0.6171055,1.4951v17.0440006c0,0.642601-0.5244999,1.1660004-1.1875,1.1660004
		C18.4932003,40.6748009,18,40.1836014,18,39.5791016V20.2929993C18,18.4775009,19.4805012,17,21.2998009,17h21.5088005
		c0.8534966,0,1.6542969,0.3311005,2.2577972,0.9335995C45.6679993,18.5342007,46,19.3339996,46,20.1846008V39.5527z"/>
	<path d="M32,13c3.3086014,0,6-2.6913996,6-6s-2.6913986-6-6-6s-6,2.6914001-6,6S28.6914005,13,32,13z M32,3
		c2.2061005,0,4,1.7939,4,4s-1.7938995,4-4,4c-2.2059994,0-4-1.7938995-4-4S29.7940006,3,32,3z"/>
</g>
<g>
</g>
<g>
</g>
<g>
</g>
<g>
</g>
<g>
</g>
<g>
</g>
<g>
</g>
<g>
</g>
<g>
</g>
<g>
</g>
<g>
</g>
<g>
</g>
<g>
</g>
<g>
</g>
<g>
</g>
</svg>
